<svg width="90" height="90" viewBox="0 0 90 90" fill="none" xmlns="http://www.w3.org/2000/svg">
<path d="M80.1562 44.9999C80.1562 46.1188 79.7117 47.1918 78.9205 47.983C78.1293 48.7742 77.0563 49.2186 75.9374 49.2186H24.2577L42.3702 67.3276C43.1628 68.1202 43.608 69.1951 43.608 70.3159C43.608 71.4367 43.1628 72.5117 42.3702 73.3042C41.5777 74.0967 40.5028 74.542 39.3819 74.542C38.2611 74.542 37.1862 74.0967 36.3937 73.3042L11.0812 47.9917C10.6879 47.5998 10.3758 47.134 10.1629 46.6212C9.94994 46.1084 9.84033 45.5587 9.84033 45.0034C9.84033 44.4482 9.94994 43.8984 10.1629 43.3856C10.3758 42.8728 10.6879 42.4071 11.0812 42.0151L36.3937 16.7026C36.7861 16.3102 37.252 15.9989 37.7647 15.7865C38.2774 15.5742 38.827 15.4648 39.3819 15.4648C39.9369 15.4648 40.4865 15.5742 40.9992 15.7865C41.5119 15.9989 41.9778 16.3102 42.3702 16.7026C42.7626 17.0951 43.0739 17.5609 43.2863 18.0737C43.4987 18.5864 43.608 19.1359 43.608 19.6909C43.608 20.2459 43.4987 20.7954 43.2863 21.3082C43.0739 21.8209 42.7626 22.2868 42.3702 22.6792L24.2577 40.7811H75.9374C77.0563 40.7811 78.1293 41.2256 78.9205 42.0168C79.7117 42.808 80.1562 43.881 80.1562 44.9999Z" fill="#04E68F"/>
</svg>
