<svg width="90" height="90" viewBox="0 0 90 90" fill="none" xmlns="http://www.w3.org/2000/svg">
<path d="M78.75 44.9996C78.75 45.7455 78.4537 46.4609 77.9263 46.9884C77.3988 47.5158 76.6834 47.8121 75.9375 47.8121H20.8512L41.3649 68.3223C41.6262 68.5836 41.8335 68.8938 41.9749 69.2352C42.1163 69.5766 42.1891 69.9426 42.1891 70.3121C42.1891 70.6817 42.1163 71.0476 41.9749 71.389C41.8335 71.7304 41.6262 72.0406 41.3649 72.302C41.1036 72.5633 40.7933 72.7705 40.4519 72.912C40.1105 73.0534 39.7446 73.1262 39.375 73.1262C39.0055 73.1262 38.6395 73.0534 38.2981 72.912C37.9567 72.7705 37.6465 72.5633 37.3852 72.302L12.0727 46.9895C11.8112 46.7283 11.6037 46.4181 11.4622 46.0766C11.3207 45.7352 11.2478 45.3692 11.2478 44.9996C11.2478 44.63 11.3207 44.264 11.4622 43.9226C11.6037 43.5812 11.8112 43.271 12.0727 43.0098L37.3852 17.6973C37.9129 17.1695 38.6287 16.873 39.375 16.873C40.1214 16.873 40.8371 17.1695 41.3649 17.6973C41.8926 18.225 42.1891 18.9408 42.1891 19.6871C42.1891 20.4334 41.8926 21.1492 41.3649 21.677L20.8512 42.1871H75.9375C76.6834 42.1871 77.3988 42.4834 77.9263 43.0109C78.4537 43.5383 78.75 44.2537 78.75 44.9996Z" fill="white"/>
</svg>
