<svg width="80" height="80" viewBox="0 0 80 80" fill="none" xmlns="http://www.w3.org/2000/svg">
<path d="M74.2774 60.7421C71.486 57.9296 64.7254 53.8251 61.4453 52.171C57.1739 50.0194 56.8223 49.8436 53.4649 52.338C51.2254 54.0026 49.7366 55.4897 47.1157 54.9308C44.4948 54.3718 38.7994 51.22 33.8125 46.2489C28.8256 41.2778 25.491 35.4173 24.9303 32.8052C24.3696 30.1931 25.8813 28.7218 27.5301 26.477C29.8539 23.313 29.6782 22.7856 27.6918 18.5142C26.1432 15.1919 21.9192 8.49462 19.0961 5.71728C16.0762 2.73427 16.0762 3.26162 14.1303 4.07021C12.5461 4.73675 11.0263 5.54697 9.58987 6.49072C6.77737 8.35927 5.21644 9.91142 4.12483 12.244C3.03323 14.5767 2.5428 20.0452 8.18011 30.2862C13.8174 40.5272 17.7725 45.7638 25.9586 53.927C34.1448 62.0903 40.4395 66.4796 49.6416 71.6405C61.0252 78.0161 65.3916 76.7733 67.7313 75.6835C70.0709 74.5936 71.6301 73.0468 73.5022 70.2343C74.4484 68.8003 75.2604 67.2821 75.928 65.6991C76.7383 63.7603 77.2657 63.7603 74.2774 60.7421Z" stroke="#04E68F" stroke-width="5.625" stroke-miterlimit="10"/>
</svg>
