<svg width="78" height="54" viewBox="0 0 78 54" fill="none" xmlns="http://www.w3.org/2000/svg">
<path fill-rule="evenodd" clip-rule="evenodd" d="M45.75 0H14.25C10.6696 0 7.2358 1.42232 4.70406 3.95406C2.17232 6.4858 0.75 9.91958 0.75 13.5V40.5C0.75 44.0804 2.17232 47.5142 4.70406 50.0459C7.2358 52.5777 10.6696 54 14.25 54H45.75C49.3304 54 52.7642 52.5777 55.2959 50.0459C57.8277 47.5142 59.25 44.0804 59.25 40.5V13.5C59.25 9.91958 57.8277 6.4858 55.2959 3.95406C52.7642 1.42232 49.3304 0 45.75 0ZM9.75 13.5C9.75 12.3065 10.2241 11.1619 11.068 10.318C11.9119 9.47411 13.0565 9 14.25 9H45.75C46.9435 9 48.0881 9.47411 48.932 10.318C49.7759 11.1619 50.25 12.3065 50.25 13.5V40.5C50.25 41.6935 49.7759 42.8381 48.932 43.682C48.0881 44.5259 46.9435 45 45.75 45H14.25C13.0565 45 11.9119 44.5259 11.068 43.682C10.2241 42.8381 9.75 41.6935 9.75 40.5V13.5Z" fill="#04E68F"/>
<path fill-rule="evenodd" clip-rule="evenodd" d="M70.203 5.29213L54.597 16.0066C54.0006 16.416 53.5118 16.9631 53.1718 17.6015C52.8319 18.2399 52.6508 18.9509 52.644 19.6741L52.5 34.1416C52.4929 34.8794 52.6673 35.6075 53.0079 36.262C53.3485 36.9164 53.8447 37.4771 54.453 37.8946L70.203 48.7081C70.8786 49.172 71.6681 49.4425 72.4862 49.4906C73.3044 49.5386 74.1201 49.3623 74.8454 48.9807C75.5707 48.599 76.178 48.0266 76.6017 47.3251C77.0255 46.6236 77.2496 45.8197 77.25 45.0001V9.00013C77.2496 8.18058 77.0255 7.37667 76.6017 6.67518C76.178 5.97368 75.5707 5.40123 74.8454 5.0196C74.1201 4.63797 73.3044 4.46166 72.4862 4.50969C71.6681 4.55772 70.8786 4.82826 70.203 5.29213ZM68.25 36.4501L61.5225 31.8331L61.6215 22.0996L68.25 17.5501V36.4501Z" fill="#04E68F"/>
</svg>
