<svg width="90" height="90" viewBox="0 0 90 90" fill="none" xmlns="http://www.w3.org/2000/svg">
<path d="M30 41.2502C30 40.2557 30.3951 39.3018 31.0984 38.5986C31.8017 37.8953 32.7555 37.5002 33.75 37.5002H56.25C57.2446 37.5002 58.1984 37.8953 58.9017 38.5986C59.605 39.3018 60 40.2557 60 41.2502C60 42.2448 59.605 43.1986 58.9017 43.9019C58.1984 44.6051 57.2446 45.0002 56.25 45.0002H33.75C32.7555 45.0002 31.8017 44.6051 31.0984 43.9019C30.3951 43.1986 30 42.2448 30 41.2502ZM33.75 52.5002C32.7555 52.5002 31.8017 52.8953 31.0984 53.5986C30.3951 54.3018 30 55.2557 30 56.2502C30 57.2448 30.3951 58.1986 31.0984 58.9019C31.8017 59.6051 32.7555 60.0002 33.75 60.0002H48.75C49.7446 60.0002 50.6984 59.6051 51.4017 58.9019C52.105 58.1986 52.5 57.2448 52.5 56.2502C52.5 55.2557 52.105 54.3018 51.4017 53.5986C50.6984 52.8953 49.7446 52.5002 48.75 52.5002H33.75ZM7.50004 45.0002C7.50192 36.7787 10.2056 28.7857 15.195 22.2512C20.1844 15.7167 27.1829 11.003 35.1135 8.8355C43.0442 6.66799 51.4674 7.1668 59.0868 10.2552C66.7061 13.3435 73.0994 18.8503 77.2827 25.928C81.466 33.0056 83.2074 41.2619 82.239 49.4262C81.2705 57.5905 77.6458 65.2102 71.9228 71.1128C66.1998 77.0153 58.6955 80.8735 50.5651 82.0936C42.4346 83.3137 34.1285 81.828 26.925 77.8652L12.345 82.3052C11.6947 82.5033 11.0028 82.5209 10.3432 82.3561C9.6837 82.1913 9.08136 81.8503 8.60065 81.3696C8.11994 80.8889 7.77895 80.2866 7.61415 79.627C7.44935 78.9675 7.46694 78.2755 7.66504 77.6252L12.105 63.0227C9.0747 57.4997 7.49057 51.2999 7.50004 45.0002ZM45 15.0002C39.6746 14.9998 34.445 16.4169 29.8484 19.1061C25.2518 21.7953 21.4539 25.6597 18.8448 30.3022C16.2356 34.9447 14.9093 40.1981 15.0021 45.5227C15.0948 50.8474 16.6033 56.0514 19.3725 60.6002C19.6474 61.0521 19.8236 61.557 19.8895 62.0818C19.9555 62.6066 19.9096 63.1394 19.755 63.6452L16.8825 73.0877L26.31 70.2152C26.8175 70.0606 27.352 70.0155 27.8781 70.0827C28.4043 70.1499 28.9103 70.328 29.3625 70.6052C33.3164 73.0192 37.7756 74.4847 42.3906 74.8869C47.0056 75.2891 51.651 74.6171 55.9629 72.9236C60.2747 71.23 64.1358 68.5609 67.2434 65.1254C70.3511 61.6899 72.6209 57.5814 73.875 53.1219C75.1292 48.6624 75.3335 43.973 74.472 39.4213C73.6106 34.8696 71.7067 30.5793 68.9096 26.8865C66.1126 23.1937 62.4983 20.1989 58.3501 18.1367C54.2019 16.0745 49.6325 15.001 45 15.0002Z" fill="white"/>
</svg>
