<svg width="74" height="54" viewBox="0 0 74 54" fill="none" xmlns="http://www.w3.org/2000/svg">
<path d="M72.7349 7.29716L27.7349 52.2972C27.3429 52.6905 26.8772 53.0025 26.3644 53.2155C25.8516 53.4284 25.3018 53.538 24.7466 53.538C24.1913 53.538 23.6415 53.4284 23.1287 53.2155C22.616 53.0025 22.1502 52.6905 21.7583 52.2972L2.07079 32.6097C1.67837 32.2172 1.36708 31.7514 1.1547 31.2386C0.942318 30.7259 0.833008 30.1764 0.833008 29.6214C0.833008 29.0664 0.942318 28.5169 1.1547 28.0041C1.36708 27.4914 1.67837 27.0255 2.07079 26.6331C2.46322 26.2407 2.9291 25.9294 3.44183 25.717C3.95456 25.5046 4.5041 25.3953 5.05908 25.3953C5.61405 25.3953 6.16359 25.5046 6.67632 25.717C7.18905 25.9294 7.65493 26.2407 8.04736 26.6331L24.7501 43.3358L66.7653 1.32763C67.5579 0.535088 68.6328 0.0898438 69.7536 0.0898438C70.8744 0.0898438 71.9493 0.535088 72.7419 1.32763C73.5344 2.12017 73.9797 3.19509 73.9797 4.31591C73.9797 5.43674 73.5344 6.51165 72.7419 7.30419L72.7349 7.29716Z" fill="white"/>
</svg>
