<svg width="82" height="68" viewBox="0 0 82 68" fill="none" xmlns="http://www.w3.org/2000/svg">
<path d="M40.5068 27C44.0872 27 47.521 25.5777 50.0528 23.0459C52.5845 20.5142 54.0068 17.0804 54.0068 13.5C54.0068 9.91958 52.5845 6.4858 50.0528 3.95406C47.521 1.42232 44.0872 0 40.5068 0C36.9264 0 33.4926 1.42232 30.9609 3.95406C28.4291 6.4858 27.0068 9.91958 27.0068 13.5C27.0068 17.0804 28.4291 20.5142 30.9609 23.0459C33.4926 25.5777 36.9264 27 40.5068 27ZM22.5068 22.5C22.5068 24.8869 21.5586 27.1761 19.8708 28.864C18.183 30.5518 15.8938 31.5 13.5068 31.5C11.1199 31.5 8.83069 30.5518 7.14286 28.864C5.45503 27.1761 4.50682 24.8869 4.50682 22.5C4.50682 20.1131 5.45503 17.8239 7.14286 16.136C8.83069 14.4482 11.1199 13.5 13.5068 13.5C15.8938 13.5 18.183 14.4482 19.8708 16.136C21.5586 17.8239 22.5068 20.1131 22.5068 22.5ZM2.21182 55.467C1.44361 55.0304 0.868323 54.3201 0.600821 53.478C-0.192054 50.91 -0.200369 48.1637 0.576942 45.591C1.35425 43.0182 2.88181 40.736 4.96399 39.0366C7.04617 37.3372 9.5882 36.298 12.2646 36.052C14.9409 35.8061 17.6298 36.3646 19.9868 37.656C15.1432 42.4159 12.1115 48.7163 11.4143 55.4715C11.3108 56.4705 11.3513 57.4605 11.5268 58.4145C8.24254 58.1305 5.06165 57.124 2.21182 55.467ZM69.4868 58.41C72.7708 58.1274 75.9516 57.1224 78.8018 55.467C79.5683 55.0295 80.1419 54.3194 80.4083 53.478C81.2025 50.9097 81.2117 48.1628 80.435 45.5892C79.6582 43.0155 78.1307 40.7324 76.0483 39.0324C73.9658 37.3323 71.4232 36.2926 68.7462 36.0466C66.0692 35.8006 63.3797 36.3594 61.0223 37.6515C65.8702 42.4113 68.9052 48.7136 69.6038 55.4715C69.7041 56.4531 69.6647 57.444 69.4868 58.4145V58.41ZM76.5068 22.5C76.5068 24.8869 75.5586 27.1761 73.8708 28.864C72.183 30.5518 69.8938 31.5 67.5068 31.5C65.1199 31.5 62.8307 30.5518 61.1429 28.864C59.455 27.1761 58.5068 24.8869 58.5068 22.5C58.5068 20.1131 59.455 17.8239 61.1429 16.136C62.8307 14.4482 65.1199 13.5 67.5068 13.5C69.8938 13.5 72.183 14.4482 73.8708 16.136C75.5586 17.8239 76.5068 20.1131 76.5068 22.5ZM19.3748 59.355C18.931 58.9575 18.5869 58.4612 18.3704 57.9062C18.1539 57.3512 18.0709 56.753 18.1283 56.16C18.7007 50.6227 21.3055 45.4941 25.4393 41.7656C29.573 38.0371 34.9422 35.9734 40.5091 35.9734C46.0759 35.9734 51.4451 38.0371 55.5789 41.7656C59.7126 45.4941 62.3174 50.6227 62.8898 56.16C62.9476 56.753 62.8648 57.3513 62.6482 57.9064C62.4317 58.4615 62.0874 58.9578 61.6433 59.355C55.8572 64.6063 48.3205 67.5105 40.5068 67.5C32.6946 67.5099 25.1595 64.6056 19.3748 59.355Z" fill="white"/>
</svg>
