<svg width="16" height="68" viewBox="0 0 16 68" fill="none" xmlns="http://www.w3.org/2000/svg">
<path d="M8 0.25C3.875 0.25 0.5 3.625 0.5 7.75C0.5 11.875 3.875 15.25 8 15.25C12.125 15.25 15.5 11.875 15.5 7.75C15.5 3.625 12.125 0.25 8 0.25ZM8 52.75C3.875 52.75 0.5 56.125 0.5 60.25C0.5 64.375 3.875 67.75 8 67.75C12.125 67.75 15.5 64.375 15.5 60.25C15.5 56.125 12.125 52.75 8 52.75ZM8 26.5C3.875 26.5 0.5 29.875 0.5 34C0.5 38.125 3.875 41.5 8 41.5C12.125 41.5 15.5 38.125 15.5 34C15.5 29.875 12.125 26.5 8 26.5Z" fill="#04E68F"/>
</svg>
