<svg width="90" height="90" viewBox="0 0 90 90" fill="none" xmlns="http://www.w3.org/2000/svg">
<path d="M45 30.9375C45 34.6671 43.5184 38.244 40.8812 40.8812C38.244 43.5184 34.6671 45 30.9375 45C27.2079 45 23.631 43.5184 20.9938 40.8812C18.3566 38.244 16.875 34.6671 16.875 30.9375C16.875 27.2079 18.3566 23.631 20.9938 20.9938C23.631 18.3566 27.2079 16.875 30.9375 16.875C34.6671 16.875 38.244 18.3566 40.8812 20.9938C43.5184 23.631 45 27.2079 45 30.9375ZM64.6875 45C67.6712 45 70.5327 43.8147 72.6424 41.705C74.7522 39.5952 75.9375 36.7337 75.9375 33.75C75.9375 30.7663 74.7522 27.9048 72.6424 25.795C70.5327 23.6853 67.6712 22.5 64.6875 22.5C61.7038 22.5 58.8423 23.6853 56.7326 25.795C54.6228 27.9048 53.4375 30.7663 53.4375 33.75C53.4375 36.7337 54.6228 39.5952 56.7326 41.705C58.8423 43.8147 61.7038 45 64.6875 45ZM45 53.4375C45 52.4588 45.1688 51.5137 45.4781 50.6362C45.3189 50.6281 45.1594 50.6243 45 50.625H16.875C14.6372 50.625 12.4911 51.5139 10.9088 53.0963C9.32645 54.6786 8.4375 56.8247 8.4375 59.0625V59.4844C8.4375 59.4844 8.4375 75.9375 30.9375 75.9375C37.7438 75.9375 42.4969 74.43 45.81 72.3262C46.1588 71.595 46.6087 70.9144 47.1487 70.3125C45.7623 68.7673 44.9969 66.7635 45 64.6875C45 62.5275 45.81 60.5531 47.1487 59.0625C45.7623 57.5173 44.9969 55.5135 45 53.4375ZM53.4375 50.625C52.6916 50.625 51.9762 50.9213 51.4488 51.4488C50.9213 51.9762 50.625 52.6916 50.625 53.4375C50.625 54.1834 50.9213 54.8988 51.4488 55.4262C51.9762 55.9537 52.6916 56.25 53.4375 56.25H81.5625C82.3084 56.25 83.0238 55.9537 83.5512 55.4262C84.0787 54.8988 84.375 54.1834 84.375 53.4375C84.375 52.6916 84.0787 51.9762 83.5512 51.4488C83.0238 50.9213 82.3084 50.625 81.5625 50.625H53.4375ZM53.4375 61.875C52.6916 61.875 51.9762 62.1713 51.4488 62.6988C50.9213 63.2262 50.625 63.9416 50.625 64.6875C50.625 65.4334 50.9213 66.1488 51.4488 66.6762C51.9762 67.2037 52.6916 67.5 53.4375 67.5H81.5625C82.3084 67.5 83.0238 67.2037 83.5512 66.6762C84.0787 66.1488 84.375 65.4334 84.375 64.6875C84.375 63.9416 84.0787 63.2262 83.5512 62.6988C83.0238 62.1713 82.3084 61.875 81.5625 61.875H53.4375ZM53.4375 73.125C52.6916 73.125 51.9762 73.4213 51.4488 73.9488C50.9213 74.4762 50.625 75.1916 50.625 75.9375C50.625 76.6834 50.9213 77.3988 51.4488 77.9262C51.9762 78.4537 52.6916 78.75 53.4375 78.75H81.5625C82.3084 78.75 83.0238 78.4537 83.5512 77.9262C84.0787 77.3988 84.375 76.6834 84.375 75.9375C84.375 75.1916 84.0787 74.4762 83.5512 73.9488C83.0238 73.4213 82.3084 73.125 81.5625 73.125H53.4375Z" fill="white"/>
</svg>
