<svg width="83" height="76" viewBox="0 0 83 76" fill="none" xmlns="http://www.w3.org/2000/svg">
<mask id="mask0_3172_27612" style="mask-type:luminance" maskUnits="userSpaceOnUse" x="0" y="0" width="83" height="76">
<path d="M32.125 30.25C33.8486 30.25 35.5553 29.9105 37.1477 29.2509C38.7401 28.5913 40.187 27.6245 41.4058 26.4058C42.6245 25.187 43.5913 23.7401 44.2509 22.1477C44.9105 20.5553 45.25 18.8486 45.25 17.125C45.25 15.4014 44.9105 13.6947 44.2509 12.1023C43.5913 10.5099 42.6245 9.06299 41.4058 7.84422C40.187 6.62546 38.7401 5.65867 37.1477 4.99908C35.5553 4.33949 33.8486 4 32.125 4C28.644 4 25.3056 5.38281 22.8442 7.84422C20.3828 10.3056 19 13.644 19 17.125C19 20.606 20.3828 23.9444 22.8442 26.4058C25.3056 28.8672 28.644 30.25 32.125 30.25ZM4 69.25V71.5H60.25V69.25C60.25 60.85 60.25 56.65 58.615 53.44C57.1769 50.6177 54.8823 48.3231 52.06 46.885C48.85 45.25 44.65 45.25 36.25 45.25H28C19.6 45.25 15.4 45.25 12.19 46.885C9.36769 48.3231 7.07308 50.6177 5.635 53.44C4 56.65 4 60.85 4 69.25Z" fill="white" stroke="white" stroke-width="7.5" stroke-linecap="round" stroke-linejoin="round"/>
<path d="M67.75 17.125V39.625M56.5 28.375H79" stroke="white" stroke-width="7.5" stroke-linecap="round" stroke-linejoin="round"/>
</mask>
<g mask="url(#mask0_3172_27612)">
<path d="M-3.5 -7.25H86.5V82.75H-3.5V-7.25Z" fill="white"/>
</g>
</svg>
