<svg width="78" height="78" viewBox="0 0 78 78" fill="none" xmlns="http://www.w3.org/2000/svg">
<path d="M72.75 72.7498L56.4638 56.4635M56.4638 56.4635C59.2496 53.6777 61.4595 50.3705 62.9671 46.7306C64.4748 43.0907 65.2508 39.1896 65.2508 35.2498C65.2508 31.31 64.4748 27.4089 62.9671 23.769C61.4595 20.1291 59.2496 16.8219 56.4638 14.036C53.678 11.2502 50.3707 9.04038 46.7308 7.5327C43.091 6.02502 39.1898 5.24902 35.25 5.24902C31.3103 5.24902 27.4091 6.02502 23.7692 7.5327C20.1294 9.04038 16.8221 11.2502 14.0363 14.036C8.41005 19.6623 5.24927 27.2931 5.24927 35.2498C5.24927 43.2065 8.41005 50.8373 14.0363 56.4635C19.6625 62.0898 27.2933 65.2506 35.25 65.2506C43.2067 65.2506 50.8376 62.0898 56.4638 56.4635Z" stroke="#04E68F" stroke-width="9.375" stroke-linecap="round" stroke-linejoin="round"/>
</svg>
