<svg width="177" height="167" viewBox="0 0 177 167" fill="none" xmlns="http://www.w3.org/2000/svg">
<rect width="177" height="167" rx="52" fill="#08DA89"/>
<path d="M89.0062 127C98.3251 126.999 107.379 123.787 114.742 117.872C122.106 111.956 127.36 103.672 129.679 94.3236C131.998 84.9754 131.249 75.094 127.55 66.2351C123.852 57.3761 117.413 50.0427 109.249 45.3894C101.085 40.7362 91.6579 39.0273 82.4529 40.5318C73.2479 42.0364 64.7874 46.6689 58.4034 53.7001C52.0194 60.7313 48.0745 69.7619 47.1898 79.37C46.305 88.9781 48.5306 98.6182 53.5163 106.772L47.0063 127L66.5362 120.257C73.2541 124.674 81.0493 127.013 89.0062 127Z" stroke="white" stroke-width="7.5" stroke-linecap="round" stroke-linejoin="round"/>
<path d="M93.7812 86.7969C95.1979 87.2865 96.474 87.9688 97.6094 88.8438C98.7448 89.7188 99.7135 90.7396 100.516 91.9062C101.318 93.0729 101.932 94.3385 102.359 95.7031C102.786 97.0677 103 98.5 103 100H101C101 98.2917 100.698 96.7083 100.094 95.25C99.4896 93.7917 98.6458 92.5208 97.5625 91.4375C96.4792 90.3542 95.2135 89.5156 93.7656 88.9219C92.3177 88.3281 90.7292 88.0208 89 88C87.8854 88 86.8125 88.1406 85.7812 88.4219C84.75 88.7031 83.7917 89.099 82.9062 89.6094C82.0208 90.1198 81.2135 90.7396 80.4844 91.4688C79.7552 92.1979 79.1354 93.0052 78.625 93.8906C78.1146 94.776 77.7135 95.7396 77.4219 96.7812C77.1302 97.8229 76.9896 98.8958 77 100H75C75 98.5 75.2188 97.0677 75.6562 95.7031C76.0938 94.3385 76.7135 93.0781 77.5156 91.9219C78.3177 90.7656 79.2865 89.7552 80.4219 88.8906C81.5573 88.026 82.8333 87.3333 84.25 86.8125C83.4375 86.375 82.7083 85.8438 82.0625 85.2188C81.4167 84.5938 80.8698 83.901 80.4219 83.1406C79.974 82.3802 79.625 81.5625 79.375 80.6875C79.125 79.8125 79 78.9167 79 78C79 76.6146 79.2604 75.3177 79.7812 74.1094C80.3021 72.901 81.0156 71.8385 81.9219 70.9219C82.8281 70.0052 83.8854 69.2917 85.0938 68.7812C86.3021 68.2708 87.6042 68.0104 89 68C90.3854 68 91.6823 68.2604 92.8906 68.7812C94.099 69.3021 95.1615 70.0156 96.0781 70.9219C96.9948 71.8281 97.7083 72.8854 98.2188 74.0938C98.7292 75.3021 98.9896 76.6042 99 78C99 78.9167 98.8802 79.8073 98.6406 80.6719C98.401 81.5365 98.0521 82.349 97.5938 83.1094C97.1354 83.8698 96.5885 84.5625 95.9531 85.1875C95.3177 85.8125 94.5938 86.349 93.7812 86.7969ZM81 78C81 79.1042 81.2083 80.1406 81.625 81.1094C82.0417 82.0781 82.6146 82.9219 83.3438 83.6406C84.0729 84.3594 84.9219 84.9323 85.8906 85.3594C86.8594 85.7865 87.8958 86 89 86C90.1042 86 91.1406 85.7917 92.1094 85.375C93.0781 84.9583 93.9219 84.3854 94.6406 83.6562C95.3594 82.9271 95.9323 82.0781 96.3594 81.1094C96.7865 80.1406 97 79.1042 97 78C97 76.8958 96.7917 75.8594 96.375 74.8906C95.9583 73.9219 95.3854 73.0781 94.6562 72.3594C93.9271 71.6406 93.0781 71.0677 92.1094 70.6406C91.1406 70.2135 90.1042 70 89 70C87.8958 70 86.8594 70.2083 85.8906 70.625C84.9219 71.0417 84.0781 71.6146 83.3594 72.3438C82.6406 73.0729 82.0677 73.9219 81.6406 74.8906C81.2135 75.8594 81 76.8958 81 78Z" fill="white"/>
</svg>
